{
  "accessors": [
    {
      "bufferView": 2,
      "componentType": 5126,
      "count": 9692,
      "max": [
        83.90596008300781,
        38.64337921142578,
        9.494853973388672
      ],
      "min": [
        -66.71136474609375,
        -62.31199264526367,
        -0.5081390142440796
      ],
      "type": "VEC3"
    },
    {
      "bufferView": 2,
      "byteOffset": 116304,
      "componentType": 5126,
      "count": 9692,
      "max": [
        1.0,
        1.0,
        1.0
      ],
      "min": [
        -1.0,
        -1.0,
        -1.0
      ],
      "type": "VEC3"
    },
    {
      "bufferView": 1,
      "componentType": 5126,
      "count": 9692,
      "max": [
        0.9988669753074646,
        0.9964820146560669
      ],
      "min": [
        0.0061519998125731945,
        0.006074000149965286
      ],
      "type": "VEC2"
    },
    {
      "bufferView": 0,
      "componentType": 5125,
      "count": 34446,
      "type": "SCALAR"
    },
    {
      "bufferView": 2,
      "byteOffset": 232608,
      "componentType": 5126,
      "count": 8180,
      "max": [
        80.16417694091797,
        14.490874290466309,
        20.949176788330078
      ],
      "min": [
        -25.196853637695313,
        -62.069786071777344,
        -0.5405129790306091
      ],
      "type": "VEC3"
    },
    {
      "bufferView": 2,
      "byteOffset": 330768,
      "componentType": 5126,
      "count": 8180,
      "max": [
        1.0,
        1.0,
        1.0
      ],
      "min": [
        -1.0,
        -1.0,
        -1.0
      ],
      "type": "VEC3"
    },
    {
      "bufferView": 1,
      "byteOffset": 77536,
      "componentType": 5126,
      "count": 8180,
      "max": [
        0.9988669753074646,
        0.996291995048523
      ],
      "min": [
        0.013667000457644463,
        0.006492000073194504
      ],
      "type": "VEC2"
    },
    {
      "bufferView": 0,
      "byteOffset": 137784,
      "componentType": 5125,
      "count": 15414,
      "type": "SCALAR"
    },
    {
      "bufferView": 2,
      "byteOffset": 428928,
      "componentType": 5126,
      "count": 8395,
      "max": [
        60.96017837524414,
        25.535390853881836,
        14.729307174682617
      ],
      "min": [
        -66.203125,
        -61.32286834716797,
        -0.5808709859848022
      ],
      "type": "VEC3"
    },
    {
      "bufferView": 2,
      "byteOffset": 529668,
      "componentType": 5126,
      "count": 8395,
      "max": [
        1.0,
        1.0,
        1.0
      ],
      "min": [
        -1.0,
        -1.0,
        -1.0
      ],
      "type": "VEC3"
    },
    {
      "bufferView": 1,
      "byteOffset": 142976,
      "componentType": 5126,
      "count": 8395,
      "max": [
        0.9988669753074646,
        0.9969080090522766
      ],
      "min": [
        0.008961999788880348,
        0.006486999802291393
      ],
      "type": "VEC2"
    },
    {
      "bufferView": 0,
      "byteOffset": 199440,
      "componentType": 5125,
      "count": 15789,
      "type": "SCALAR"
    },
    {
      "bufferView": 2,
      "byteOffset": 630408,
      "componentType": 5126,
      "count": 8514,
      "max": [
        77.86924743652344,
        39.29564666748047,
        14.089942932128906
      ],
      "min": [
        -65.63237762451172,
        -44.95817184448242,
        -0.5644230246543884
      ],
      "type": "VEC3"
    },
    {
      "bufferView": 2,
      "byteOffset": 732576,
      "componentType": 5126,
      "count": 8514,
      "max": [
        1.0,
        1.0,
        1.0
      ],
      "min": [
        -1.0,
        -1.0,
        -1.0
      ],
      "type": "VEC3"
    },
    {
      "bufferView": 1,
      "byteOffset": 210136,
      "componentType": 5126,
      "count": 8514,
      "max": [
        0.9988669753074646,
        0.9968439936637878
      ],
      "min": [
        0.009432000108063221,
        0.006492000073194504
      ],
      "type": "VEC2"
    },
    {
      "bufferView": 0,
      "byteOffset": 262596,
      "componentType": 5125,
      "count": 15942,
      "type": "SCALAR"
    },
    {
      "bufferView": 2,
      "byteOffset": 834744,
      "componentType": 5126,
      "count": 9240,
      "max": [
        40.040977478027344,
        11.561240196228027,
        15.552452087402344
      ],
      "min": [
        -42.42179489135742,
        -62.7110595703125,
        -0.5779479742050171
      ],
      "type": "VEC3"
    },
    {
      "bufferView": 2,
      "byteOffset": 945624,
      "componentType": 5126,
      "count": 9240,
      "max": [
        1.0,
        1.0,
        1.0
      ],
      "min": [
        -1.0,
        -1.0,
        -1.0
      ],
      "type": "VEC3"
    },
    {
      "bufferView": 1,
      "byteOffset": 278248,
      "componentType": 5126,
      "count": 9240,
      "max": [
        0.9988669753074646,
        0.9968739748001099
      ],
      "min": [
        0.006697999779134989,
        0.006492000073194504
      ],
      "type": "VEC2"
    },
    {
      "bufferView": 0,
      "byteOffset": 326364,
      "componentType": 5125,
      "count": 17262,
      "type": "SCALAR"
    },
    {
      "bufferView": 2,
      "byteOffset": 1056504,
      "componentType": 5126,
      "count": 9747,
      "max": [
        58.868690490722656,
        -14.105303764343262,
        35.121116638183594
      ],
      "min": [
        3.2445340156555176,
        -56.023895263671875,
        -0.5530549883842468
      ],
      "type": "VEC3"
    },
    {
      "bufferView": 2,
      "byteOffset": 1173468,
      "componentType": 5126,
      "count": 9747,
      "max": [
        1.0,
        1.0,
        1.0
      ],
      "min": [
        -1.0,
        -1.0,
        -1.0
      ],
      "type": "VEC3"
    },
    {
      "bufferView": 1,
      "byteOffset": 352168,
      "componentType": 5126,
      "count": 9747,
      "max": [
        0.9988669753074646,
        0.9967280030250549
      ],
      "min": [
        0.00928799994289875,
        0.006492000073194504
      ],
      "type": "VEC2"
    },
    {
      "bufferView": 0,
      "byteOffset": 395412,
      "componentType": 5125,
      "count": 18711,
      "type": "SCALAR"
    },
    {
      "bufferView": 2,
      "byteOffset": 1290432,
      "componentType": 5126,
      "count": 9038,
      "max": [
        57.252567291259766,
        36.67264938354492,
        36.761962890625
      ],
      "min": [
        -39.24877166748047,
        -18.893314361572266,
        -0.5250070095062256
      ],
      "type": "VEC3"
    },
    {
      "bufferView": 2,
      "byteOffset": 1398888,
      "componentType": 5126,
      "count": 9038,
      "max": [
        1.0,
        1.0,
        1.0
      ],
      "min": [
        -1.0,
        -1.0,
        -1.0
      ],
      "type": "VEC3"
    },
    {
      "bufferView": 1,
      "byteOffset": 430144,
      "componentType": 5126,
      "count": 9038,
      "max": [
        0.9988669753074646,
        0.9965239763259888
      ],
      "min": [
        0.005090000107884407,
        0.0055240001529455185
      ],
      "type": "VEC2"
    },
    {
      "bufferView": 0,
      "byteOffset": 470256,
      "componentType": 5125,
      "count": 17394,
      "type": "SCALAR"
    },
    {
      "bufferView": 2,
      "byteOffset": 1507344,
      "componentType": 5126,
      "count": 7270,
      "max": [
        -1.7254120111465454,
        -11.798513412475586,
        18.124011993408203
      ],
      "min": [
        -38.20907974243164,
        -43.52661895751953,
        -0.5850560069084167
      ],
      "type": "VEC3"
    },
    {
      "bufferView": 2,
      "byteOffset": 1594584,
      "componentType": 5126,
      "count": 7270,
      "max": [
        1.0,
        1.0,
        1.0
      ],
      "min": [
        -1.0,
        -1.0,
        -1.0
      ],
      "type": "VEC3"
    },
    {
      "bufferView": 1,
      "byteOffset": 502448,
      "componentType": 5126,
      "count": 7270,
      "max": [
        0.9988669753074646,
        0.9966340065002441
      ],
      "min": [
        0.013546000234782696,
        0.009611000306904316
      ],
      "type": "VEC2"
    },
    {
      "bufferView": 0,
      "byteOffset": 539832,
      "componentType": 5125,
      "count": 13791,
      "type": "SCALAR"
    },
    {
      "bufferView": 2,
      "byteOffset": 1681824,
      "componentType": 5126,
      "count": 6188,
      "max": [
        67.40676879882813,
        38.732601165771484,
        15.679076194763184
      ],
      "min": [
        42.81671142578125,
        -19.742517471313477,
        -0.582942008972168
      ],
      "type": "VEC3"
    },
    {
      "bufferView": 2,
      "byteOffset": 1756080,
      "componentType": 5126,
      "count": 6188,
      "max": [
        1.0,
        1.0,
        1.0
      ],
      "min": [
        -1.0,
        -1.0,
        -1.0
      ],
      "type": "VEC3"
    },
    {
      "bufferView": 1,
      "byteOffset": 560608,
      "componentType": 5126,
      "count": 6188,
      "max": [
        0.9988669753074646,
        0.9966340065002441
      ],
      "min": [
        0.010726000182330608,
        0.006492000073194504
      ],
      "type": "VEC2"
    },
    {
      "bufferView": 0,
      "byteOffset": 594996,
      "componentType": 5125,
      "count": 11892,
      "type": "SCALAR"
    },
    {
      "bufferView": 2,
      "byteOffset": 1830336,
      "componentType": 5126,
      "count": 4936,
      "max": [
        -42.909523010253906,
        -15.74926471710205,
        19.25572967529297
      ],
      "min": [
        -67.40953063964844,
        -40.26759338378906,
        -0.5059040188789368
      ],
      "type": "VEC3"
    },
    {
      "bufferView": 2,
      "byteOffset": 1889568,
      "componentType": 5126,
      "count": 4936,
      "max": [
        1.0,
        1.0,
        1.0
      ],
      "min": [
        -1.0,
        -1.0,
        -1.0
      ],
      "type": "VEC3"
    },
    {
      "bufferView": 1,
      "byteOffset": 610112,
      "componentType": 5126,
      "count": 4936,
      "max": [
        0.9988669753074646,
        0.9951969981193542
      ],
      "min": [
        0.011792999692261219,
        0.006492000073194504
      ],
      "type": "VEC2"
    },
    {
      "bufferView": 0,
      "byteOffset": 642564,
      "componentType": 5125,
      "count": 9345,
      "type": "SCALAR"
    },
    {
      "bufferView": 2,
      "byteOffset": 1948800,
      "componentType": 5126,
      "count": 5836,
      "max": [
        -11.388744354248047,
        33.61016082763672,
        32.7786750793457
      ],
      "min": [
        -51.831687927246094,
        12.521313667297363,
        -0.4394569993019104
      ],
      "type": "VEC3"
    },
    {
      "bufferView": 2,
      "byteOffset": 2018832,
      "componentType": 5126,
      "count": 5836,
      "max": [
        1.0,
        1.0,
        1.0
      ],
      "min": [
        -1.0,
        -1.0,
        -1.0
      ],
      "type": "VEC3"
    },
    {
      "bufferView": 1,
      "byteOffset": 649600,
      "componentType": 5126,
      "count": 5836,
      "max": [
        0.9988669753074646,
        0.9956349730491638
      ],
      "min": [
        0.0095210000872612,
        0.0381850004196167
      ],
      "type": "VEC2"
    },
    {
      "bufferView": 0,
      "byteOffset": 679944,
      "componentType": 5125,
      "count": 11214,
      "type": "SCALAR"
    },
    {
      "bufferView": 2,
      "byteOffset": 2088864,
      "componentType": 5126,
      "count": 6760,
      "max": [
        29.52009391784668,
        41.01654815673828,
        30.913318634033203
      ],
      "min": [
        -9.731679916381836,
        16.012344360351563,
        -0.5193849802017212
      ],
      "type": "VEC3"
    },
    {
      "bufferView": 2,
      "byteOffset": 2169984,
      "componentType": 5126,
      "count": 6760,
      "max": [
        1.0,
        1.0,
        1.0
      ],
      "min": [
        -1.0,
        -1.0,
        -1.0
      ],
      "type": "VEC3"
    },
    {
      "bufferView": 1,
      "byteOffset": 696288,
      "componentType": 5126,
      "count": 6760,
      "max": [
        0.9988669753074646,
        0.9987080097198486
      ],
      "min": [
        0.003949000034481287,
        0.006492000073194504
      ],
      "type": "VEC2"
    },
    {
      "bufferView": 0,
      "byteOffset": 724800,
      "componentType": 5125,
      "count": 12888,
      "type": "SCALAR"
    },
    {
      "bufferView": 2,
      "byteOffset": 2251104,
      "componentType": 5126,
      "count": 5742,
      "max": [
        -44.05247497558594,
        11.971047401428223,
        23.963642120361328
      ],
      "min": [
        -65.19683074951172,
        -13.505867958068848,
        -0.5663160085678101
      ],
      "type": "VEC3"
    },
    {
      "bufferView": 2,
      "byteOffset": 2320008,
      "componentType": 5126,
      "count": 5742,
      "max": [
        1.0,
        1.0,
        1.0
      ],
      "min": [
        -1.0,
        -1.0,
        -1.0
      ],
      "type": "VEC3"
    },
    {
      "bufferView": 1,
      "byteOffset": 750368,
      "componentType": 5126,
      "count": 5742,
      "max": [
        0.9988669753074646,
        0.9959920048713684
      ],
      "min": [
        0.011353000067174435,
        0.006492000073194504
      ],
      "type": "VEC2"
    },
    {
      "bufferView": 0,
      "byteOffset": 776352,
      "componentType": 5125,
      "count": 11133,
      "type": "SCALAR"
    }
  ],
  "asset": {
    "extras": {
      "author": "OndyRen (https://sketchfab.com/saurondra)",
      "license": "CC-BY-4.0 (http://creativecommons.org/licenses/by/4.0/)",
      "source": "https://sketchfab.com/3d-models/star-wars-inspired-low-poly-buildings-db883b9fd31f438e94abd3cb8cb3ead5",
      "title": "Star Wars inspired low poly buildings"
    },
    "generator": "Sketchfab-13.42.0",
    "version": "2.0"
  },
  "bufferViews": [
    {
      "buffer": 0,
      "byteLength": 820884,
      "name": "floatBufferViews",
      "target": 34963
    },
    {
      "buffer": 0,
      "byteLength": 796304,
      "byteOffset": 820884,
      "byteStride": 8,
      "name": "floatBufferViews",
      "target": 34962
    },
    {
      "buffer": 0,
      "byteLength": 2388912,
      "byteOffset": 1617188,
      "byteStride": 12,
      "name": "floatBufferViews",
      "target": 34962
    }
  ],
  "buffers": [
    {
      "byteLength": 4006100,
      "uri": "scene.bin"
    }
  ],
  "images": [
    {
      "uri": "textures/building_baseColor.png"
    }
  ],
  "materials": [
    {
      "doubleSided": true,
      "name": "building",
      "pbrMetallicRoughness": {
        "baseColorTexture": {
          "index": 0
        },
        "metallicFactor": 0.0
      }
    }
  ],
  "meshes": [
    {
      "name": "Object_0",
      "primitives": [
        {
          "attributes": {
            "NORMAL": 1,
            "POSITION": 0,
            "TEXCOORD_0": 2
          },
          "indices": 3,
          "material": 0,
          "mode": 4
        }
      ]
    },
    {
      "name": "Object_1",
      "primitives": [
        {
          "attributes": {
            "NORMAL": 5,
            "POSITION": 4,
            "TEXCOORD_0": 6
          },
          "indices": 7,
          "material": 0,
          "mode": 4
        }
      ]
    },
    {
      "name": "Object_2",
      "primitives": [
        {
          "attributes": {
            "NORMAL": 9,
            "POSITION": 8,
            "TEXCOORD_0": 10
          },
          "indices": 11,
          "material": 0,
          "mode": 4
        }
      ]
    },
    {
      "name": "Object_3",
      "primitives": [
        {
          "attributes": {
            "NORMAL": 13,
            "POSITION": 12,
            "TEXCOORD_0": 14
          },
          "indices": 15,
          "material": 0,
          "mode": 4
        }
      ]
    },
    {
      "name": "Object_4",
      "primitives": [
        {
          "attributes": {
            "NORMAL": 17,
            "POSITION": 16,
            "TEXCOORD_0": 18
          },
          "indices": 19,
          "material": 0,
          "mode": 4
        }
      ]
    },
    {
      "name": "Object_5",
      "primitives": [
        {
          "attributes": {
            "NORMAL": 21,
            "POSITION": 20,
            "TEXCOORD_0": 22
          },
          "indices": 23,
          "material": 0,
          "mode": 4
        }
      ]
    },
    {
      "name": "Object_6",
      "primitives": [
        {
          "attributes": {
            "NORMAL": 25,
            "POSITION": 24,
            "TEXCOORD_0": 26
          },
          "indices": 27,
          "material": 0,
          "mode": 4
        }
      ]
    },
    {
      "name": "Object_7",
      "primitives": [
        {
          "attributes": {
            "NORMAL": 29,
            "POSITION": 28,
            "TEXCOORD_0": 30
          },
          "indices": 31,
          "material": 0,
          "mode": 4
        }
      ]
    },
    {
      "name": "Object_8",
      "primitives": [
        {
          "attributes": {
            "NORMAL": 33,
            "POSITION": 32,
            "TEXCOORD_0": 34
          },
          "indices": 35,
          "material": 0,
          "mode": 4
        }
      ]
    },
    {
      "name": "Object_9",
      "primitives": [
        {
          "attributes": {
            "NORMAL": 37,
            "POSITION": 36,
            "TEXCOORD_0": 38
          },
          "indices": 39,
          "material": 0,
          "mode": 4
        }
      ]
    },
    {
      "name": "Object_10",
      "primitives": [
        {
          "attributes": {
            "NORMAL": 41,
            "POSITION": 40,
            "TEXCOORD_0": 42
          },
          "indices": 43,
          "material": 0,
          "mode": 4
        }
      ]
    },
    {
      "name": "Object_11",
      "primitives": [
        {
          "attributes": {
            "NORMAL": 45,
            "POSITION": 44,
            "TEXCOORD_0": 46
          },
          "indices": 47,
          "material": 0,
          "mode": 4
        }
      ]
    },
    {
      "name": "Object_12",
      "primitives": [
        {
          "attributes": {
            "NORMAL": 49,
            "POSITION": 48,
            "TEXCOORD_0": 50
          },
          "indices": 51,
          "material": 0,
          "mode": 4
        }
      ]
    }
  ],
  "nodes": [
    {
      "children": [
        1
      ],
      "matrix": [
        1.0,
        0.0,
        0.0,
        0.0,
        0.0,
        2.220446049250313e-16,
        -1.0,
        0.0,
        0.0,
        1.0,
        2.220446049250313e-16,
        0.0,
        0.0,
        0.0,
        0.0,
        1.0
      ],
      "name": "Sketchfab_model"
    },
    {
      "children": [
        2,
        3,
        4,
        5,
        6,
        7,
        8,
        9,
        10,
        11,
        12,
        13,
        14
      ],
      "name": "Star Wars inspired low poly buildings.obj.cleaner.materialmerger.gles"
    },
    {
      "mesh": 0,
      "name": "Object_2"
    },
    {
      "mesh": 1,
      "name": "Object_3"
    },
    {
      "mesh": 2,
      "name": "Object_4"
    },
    {
      "mesh": 3,
      "name": "Object_5"
    },
    {
      "mesh": 4,
      "name": "Object_6"
    },
    {
      "mesh": 5,
      "name": "Object_7"
    },
    {
      "mesh": 6,
      "name": "Object_8"
    },
    {
      "mesh": 7,
      "name": "Object_9"
    },
    {
      "mesh": 8,
      "name": "Object_10"
    },
    {
      "mesh": 9,
      "name": "Object_11"
    },
    {
      "mesh": 10,
      "name": "Object_12"
    },
    {
      "mesh": 11,
      "name": "Object_13"
    },
    {
      "mesh": 12,
      "name": "Object_14"
    }
  ],
  "samplers": [
    {
      "magFilter": 9729,
      "minFilter": 9987,
      "wrapS": 10497,
      "wrapT": 10497
    }
  ],
  "scene": 0,
  "scenes": [
    {
      "name": "Sketchfab_Scene",
      "nodes": [
        0
      ]
    }
  ],
  "textures": [
    {
      "sampler": 0,
      "source": 0
    }
  ]
}
